<svg viewBox="0 0 512 512" width="40" height="40" xmlns="http://www.w3.org/2000/svg">
    <circle cx="255" cy="257" r="91.125"/>
    <path d="M254.454,148.421v-0.007h220.209C434.631,67.583,351.313,12,255,12c-77.967,0-147.423,36.424-192.294,93.179l84.011,143.668  C150.874,192.865,197.474,148.703,254.454,148.421z M255,365.585c-46.99,0-87.004-29.849-102.127-71.617L51.479,120.568  C25.288,159.563,10,206.495,10,257c0,123.323,91.121,225.346,209.706,242.459l84.529-145.652  C289.455,361.337,272.725,365.585,255,365.585z M482.479,165.875H314.066c29.804,19.358,49.519,52.938,49.519,91.125  c0,18.777-4.768,36.443-13.157,51.851l0.062,0.037L238.739,501.45c5.376,0.352,10.795,0.55,16.261,0.55  c135.311,0,245-109.689,245-245C500,224.794,493.774,194.044,482.479,165.875z"/>
</svg>
