<svg viewBox="0 0 512 512" width="40" height="40" xmlns="http://www.w3.org/2000/svg">
    <path d="M511.587,241.725c-0.087-1.532-0.238-3.048-0.349-4.589c-0.238-3.176-0.493-6.351-0.834-9.496   c-0.198-1.778-0.444-3.541-0.675-5.32c-0.381-2.882-0.794-5.756-1.27-8.606c-0.302-1.81-0.628-3.62-0.961-5.415   c-0.532-2.81-1.111-5.605-1.731-8.384c-0.397-1.747-0.786-3.493-1.206-5.224c-0.715-2.89-1.493-5.748-2.302-8.59   c-0.437-1.556-0.85-3.113-1.318-4.653c-1.032-3.382-2.152-6.717-3.311-10.028c-0.333-0.961-0.627-1.937-0.976-2.89   c-1.556-4.287-3.224-8.518-5.002-12.687c-0.365-0.858-0.77-1.684-1.144-2.532c-1.437-3.287-2.921-6.542-4.494-9.75   c-0.666-1.365-1.381-2.691-2.072-4.041c-1.365-2.66-2.754-5.312-4.207-7.923c-0.81-1.454-1.644-2.882-2.485-4.32   c-1.437-2.469-2.914-4.914-4.43-7.336c-0.898-1.421-1.802-2.835-2.724-4.232c-1.588-2.43-3.232-4.811-4.906-7.178   c-0.913-1.302-1.818-2.604-2.755-3.882c-1.873-2.548-3.81-5.041-5.771-7.518c-0.81-1.016-1.589-2.064-2.414-3.065   c-5.652-6.914-11.655-13.528-17.99-19.817c-0.945-0.936-1.937-1.833-2.898-2.754c-2.239-2.152-4.494-4.288-6.812-6.359   c-1.239-1.112-2.509-2.176-3.772-3.263c-2.112-1.818-4.24-3.613-6.415-5.359c-0.635-0.516-1.246-1.072-1.889-1.58   c-0.095-0.048-0.19-0.088-0.286-0.135C370.632,20.519,315.732,0.004,256.004,0.004c-75.114,0-142.678,32.344-189.504,83.871   L45,53.436c0,0-18.967,57.068-24.961,103.084c-6.431,15.227-11.417,31.21-14.815,47.763c-0.008,0.047-0.016,0.08-0.024,0.119   c-0.794,3.89-1.484,7.813-2.104,11.758c-0.04,0.286-0.103,0.572-0.15,0.858c-0.564,3.732-1.024,7.51-1.438,11.298   c-0.047,0.508-0.135,1.009-0.19,1.517c-0.35,3.517-0.596,7.066-0.802,10.623c-0.047,0.794-0.142,1.58-0.182,2.374   C0.111,247.187,0,251.578,0,255.992c0,141.392,114.612,256.004,256.004,256.004C397.38,511.996,512,397.384,512,255.992   C512,251.205,511.842,246.457,511.587,241.725z M399.468,187.087c19.69,57.663,4.224,127.99,4.224,127.99   s-2.81-26.724-12.655-30.947c-42.261,120.987-140.717,122.4-170.26,71.755c33.759,7.043,59.125-42.213,77.409-43.618   c18.292-1.398,19.697-14.061-5.621-26.732c-25.319-12.647-49.28,18.324-92.882,19.713c-43.603,1.406-49.224-35.163-33.759-46.413   c15.466-11.25,14.061,0,26.725,5.622c4.215-14.06,1.405-36.561,1.405-36.561s29.534-21.103,46.422-28.138   c16.871-7.034,16.871-22.508,14.061-30.939c-2.811-8.448-14.061,2.802-14.061,2.802s-30.948-2.802-47.826-2.802   c-9.854-11.258-7.027-47.826,14.068-78.782c-35.172,1.413-47.827,14.06-70.334,29.542c-17.817-3.096-34.314-3.628-45.572-3.486   c39.768-46.882,99.051-76.718,165.194-76.718c53.313,0,102.156,19.404,139.939,51.471c-6.153-2.406-12.933-3.978-20.388-3.636   c47.818,36.568,59.085,139.256,59.085,139.256S420.562,181.458,399.468,187.087z"/>
</svg>
