<svg viewBox="0 0 512 512" width="40" height="40" xmlns="http://www.w3.org/2000/svg">
    <path d="M251.166,60.999c-9.062,0-17.992,0.559-26.768,1.619c-0.583-2.171-1.571-4.17-2.885-5.918  c4.643-4.746,7.47-11.011,7.47-17.882c0-14.811-13.119-26.818-29.301-26.818s-29.301,12.007-29.301,26.818  c0,11.874,8.435,21.939,20.117,25.467c-0.153,0.926-0.252,1.871-0.252,2.841c0,0.794,0.072,1.571,0.175,2.337  C97.996,95.85,30.332,180.938,30.332,281.833c0,121.963,98.871,220.834,220.834,220.834C373.129,502.667,472,403.796,472,281.833  C472,159.87,373.129,60.999,251.166,60.999z M177.333,38.818c0-11.296,10.006-20.455,22.348-20.455  c12.343,0,22.348,9.158,22.348,20.455c0,5.132-2.07,9.819-5.481,13.41c-2.61-1.566-5.655-2.484-8.921-2.484  c-6.353,0-11.893,3.418-14.925,8.506C183.779,55.566,177.333,47.883,177.333,38.818z M251.166,467.903  c-102.764,0-186.07-83.308-186.07-186.07c0-102.764,83.307-186.07,186.07-186.07c102.763,0,186.07,83.306,186.07,186.07  C437.236,384.596,353.929,467.903,251.166,467.903z"/>
    <path d="M381.036,360.505l12.142,7.721c15.35-25.176,24.193-54.751,24.193-86.393c0-11.153-1.107-22.047-3.202-32.584    l-13.153,2.929c-1.657,0.369-3.292-0.634-3.651-2.241c-0.357-1.607,0.698-3.208,2.357-3.577l13.181-2.934    c-9.728-41.119-34.723-76.334-68.678-99.322l-8.575,13.485c-0.896,1.412-2.75,1.842-4.14,0.959    c-1.39-0.883-1.787-2.744-0.889-4.158l8.604-13.53c-25.533-15.983-55.714-25.233-88.059-25.233c-10.634,0-21.031,1.011-31.11,2.92    l3.425,15.38c0.367,1.647-0.638,3.272-2.245,3.63c-1.606,0.357-3.206-0.688-3.572-2.335l-3.444-15.468    c-41.693,9.464-77.431,34.599-100.692,68.889l13.628,8.664c1.43,0.909,1.873,2.772,0.99,4.161    c-0.882,1.387-2.759,1.777-4.187,0.867l-13.681-8.698c-16.036,25.563-25.317,55.792-25.317,88.194    c0,11.076,1.093,21.896,3.16,32.365l15.856-3.53c1.659-0.37,3.292,0.634,3.651,2.24c0.357,1.605-0.698,3.208-2.355,3.575    l-15.896,3.54c9.833,41.816,35.458,77.535,70.238,100.534l9.728-15.301c0.898-1.413,2.753-1.842,4.142-0.961    c1.387,0.883,1.786,2.746,0.886,4.157l-9.733,15.309c25.205,15.399,54.829,24.276,86.527,24.276    c11.595,0,22.912-1.191,33.838-3.451l-3.49-15.675c-0.367-1.646,0.639-3.271,2.244-3.63c1.606-0.356,3.207,0.689,3.572,2.335    l3.484,15.648c41.239-10.094,76.436-35.573,99.164-70.014l-12.141-7.719c-1.43-0.909-1.873-2.771-0.99-4.16    C377.731,359.983,379.605,359.595,381.036,360.505z M184.286,235.188l30.366,11.074c4.37-4.485,9.558-8.163,15.324-10.802v-61.559    l26.646,57.239c2.091,0.223,4.144,0.574,6.152,1.041l-4.463,4.186c-2.329-0.363-4.714-0.555-7.145-0.555    c-25.417,0-46.021,20.604-46.021,46.021c0,5.248,0.891,10.285,2.508,14.983l-3.235,5.378c-0.023-0.056-0.05-0.109-0.074-0.164    h-60.78l57.023-26.546c0.809-6.506,2.832-12.635,5.854-18.142L184.286,235.188z M151.509,403.342l81.3-135.13l0.656-1.089    l0.583-0.548l114.245-107.152l-81.297,135.128l-0.658,1.091l-0.581,0.547L151.509,403.342z M320.781,324.995l-29.759-11.381    c-3.983,4.988-8.881,9.209-14.442,12.414l0.77-0.129l-0.991,63.537l-25.291-56.618c-4.386-0.009-8.639-0.577-12.698-1.627    l4.389-4.116c2.728,0.503,5.535,0.779,8.408,0.779c25.416,0,46.021-20.605,46.021-46.021c0-7.098-1.61-13.819-4.479-19.822    l2.998-4.983c0.055,0.096,0.114,0.188,0.168,0.284l62.231,0.971l-55.988,25.01c-0.184,6.496-1.566,12.693-3.96,18.361    L320.781,324.995z M250.648,267.586c-7.855,0.352-13.938,7.004-13.587,14.858s7.003,13.938,14.859,13.587    c7.854-0.35,13.939-7.003,13.587-14.857C265.156,273.318,258.503,267.235,250.648,267.586z"/>
</svg>
